<svg data-v-0dd9719b="" version="1.0" xmlns="http://www.w3.org/2000/svg" xmlns:xlink="http://www.w3.org/1999/xlink" width="100%" height="100%"  color-interpolation-filters="sRGB" style="margin: auto;">
  <rect data-v-0dd9719b="" x="0" y="0" width="100%" height="100%" fill="#fff" fill-opacity="1" class="background"></rect>
  <rect data-v-0dd9719b="" x="0" y="0" width="100%" height="100%" fill="url(#watermark)" fill-opacity="1" class="watermarklayer"></rect>
  <g data-v-0dd9719b="" fill="#333" class="icon-text-wrapper icon-svg-group iconsvg"  >
    <g class="iconsvg-imagesvg" transform="translate(0,0.83929443359375)">
      <g>
        <rect fill="#333" fill-opacity="0" stroke-width="2" x="0" y="0" width="60" height="60" class="image-rect"></rect>
        <svg x="0" y="0" width="60" height="60" filtersec="colorsb743507194" class="image-svg-svg primary" style="overflow: visible;">
          <svg xmlns="http://www.w3.org/2000/svg" viewBox="0 0 100 100">
            <title>资源 348</title>
            <g fill-rule="evenodd">
              <path d="M46.85 64.14a19.64 19.64 0 0 1-18.31-19.66 28.19 28.19 0 0 1 1.34-8.68A24.25 24.25 0 0 1 40.6 22.35a30.32 30.32 0 0 1 15.68-4.17A36.51 36.51 0 0 1 67.5 20C80 24.08 87.63 32.86 90.91 43.59a46.14 46.14 0 0 1 .72 23 57.72 57.72 0 0 1-9.84 21.92A57 57 0 0 1 70.64 100H100V17.16A65.78 65.78 0 0 0 62.77 6.08a37.29 37.29 0 0 0-29.21 14 40.92 40.92 0 0 0-8 15.74 29.13 29.13 0 0 0-.12 15.11 18.28 18.28 0 0 0 11 12.1 19.42 19.42 0 0 0 7.3 1.44 15.9 15.9 0 0 0 3.11-.33z" fill="#004685"></path>
              <path d="M29.43 0H0v82.83a65.83 65.83 0 0 0 37.22 11.09 37.21 37.21 0 0 0 30.59-15.61A40 40 0 0 0 74.67 63a29 29 0 0 0-.3-14.36 18.12 18.12 0 0 0-12.23-12.2 19.13 19.13 0 0 0-5.86-.93 15.83 15.83 0 0 0-3.13.3 19.62 19.62 0 0 1 18.3 19.66 27.36 27.36 0 0 1-2 10.47 24.28 24.28 0 0 1-10.8 12.13 30.52 30.52 0 0 1-14.93 3.74A36.64 36.64 0 0 1 29.85 79a35.05 35.05 0 0 1-21-23.28 46.54 46.54 0 0 1-.09-24.13A58.39 58.39 0 0 1 20.13 9.06 57.42 57.42 0 0 1 29.43 0z" fill="#0080ca"></path>
            </g>
          </svg>
        </svg>
        <!---->
      </g>
    </g>
    <g transform="translate(67,0)">
      <g data-gra="path-name" fill-rule="" class="tp-name iconsvg-namesvg" transform="translate(0,0)">
        <g transform="scale(1)">
          <g>
            <path d="M17.04 0L1.3 0 1.3-5.55 4.6-6.03 19.3-46.21 28.79-46.21 43.39-6.03 46.69-5.55 46.69 0 30.94 0 30.94-5.55 34.15-6.13 32.12-12.47 15.87-12.47 13.84-6.13 17.04-5.55 17.04 0ZM23.42-35.04L18.06-19.3 29.93-19.3 24.53-35.13 24.09-36.53 23.9-36.53 23.42-35.04ZM68.9 0L49.77 0 49.77-5.55 54.69-6.51 54.69-39.67 49.77-40.63 49.77-46.21 54.69-46.21 68.4-46.21 81-14 81.19-14 93.37-46.21 112.04-46.21 112.04-40.63 107.08-39.67 107.08-6.51 112.04-5.55 112.04 0 92.9 0 92.9-5.55 98.07-6.51 98.07-15.36 98.23-36.21 98.04-36.25 84.23-0.63 77.22-0.63 63.1-35.96 62.91-35.93 63.44-16.31 63.44-6.51 68.9-5.55 68.9 0ZM134.19 0.67L134.19 0.67Q129.08 0.67 124.89-0.48 120.7-1.62 116.64-4.44L116.64-4.44 116.64-15.62 123.81-15.62 124.79-9.05Q126.22-7.84 128.73-7.09 131.24-6.35 134.19-6.35L134.19-6.35Q136.7-6.35 138.43-7.05 140.16-7.74 141.06-9.03 141.97-10.31 141.97-12.06L141.97-12.06Q141.97-13.71 141.16-15 140.35-16.28 138.49-17.34 136.63-18.41 133.46-19.39L133.46-19.39Q127.97-21.01 124.37-22.93 120.76-24.85 118.97-27.53 117.18-30.21 117.18-33.99L117.18-33.99Q117.18-37.74 119.26-40.61 121.34-43.48 125.02-45.13 128.7-46.78 133.52-46.85L133.52-46.85Q138.85-46.91 142.97-45.58 147.08-44.24 150.06-41.86L150.06-41.86 150.06-31.45 143.11-31.45 141.9-37.8Q140.7-38.56 138.65-39.13 136.6-39.7 134-39.7L134-39.7Q131.78-39.7 130.08-39.04 128.38-38.37 127.4-37.1 126.41-35.83 126.41-34.02L126.41-34.02Q126.41-32.47 127.27-31.31 128.13-30.15 130.14-29.12 132.16-28.09 135.71-26.91L135.71-26.91Q143.36-24.79 147.31-21.3 151.26-17.81 151.26-12.12L151.26-12.12Q151.26-8.19 149.14-5.32 147.01-2.44 143.17-0.89 139.33 0.67 134.19 0.67Z" transform="translate(-1.2999999523162842, 46.85258865356445)"></path>
          </g>
          <!---->
          <!---->
          <!---->
          <!---->
          <!---->
          <!---->
          <!---->
        </g>
      </g>
      <g data-gra="path-slogan" fill-rule="" class="tp-slogan iconsvg-slogansvg" fill="#333" transform="translate(-0.08000946044921875,53.52259063720703)">
        <!---->
        <!---->
        <g transform="scale(1, 1)">
          <g transform="scale(1)">
            <path d="M4.43-3.20L2.06-3.20L2.44-4.40C2.58-4.84 2.72-5.28 2.84-5.72C2.97-6.15 3.10-6.60 3.22-7.06L3.26-7.06C3.39-6.60 3.52-6.15 3.65-5.72C3.78-5.28 3.91-4.84 4.06-4.40ZM4.68-2.40L5.42 0L6.49 0L3.83-7.87L2.70-7.87L0.04 0L1.06 0L1.81-2.40ZM7.61-7.87L7.61 0L8.53 0L8.53-4.33C8.53-4.68 8.52-5.07 8.48-5.50C8.45-5.92 8.42-6.31 8.40-6.66L8.45-6.66L9.07-4.91L10.60-0.79L11.16-0.79L12.67-4.91L13.31-6.66L13.36-6.66C13.32-6.31 13.29-5.92 13.27-5.50C13.24-5.07 13.22-4.68 13.22-4.33L13.22 0L14.17 0L14.17-7.87L13.00-7.87L11.48-3.65L10.93-2.04L10.88-2.04L10.31-3.65L8.78-7.87ZM16.33-7.87L16.33 0L17.33 0L17.33-3.12L18.74-3.12C19.18-3.12 19.57-3.17 19.93-3.27C20.28-3.37 20.59-3.52 20.84-3.72C21.10-3.92 21.30-4.17 21.44-4.48C21.58-4.78 21.65-5.14 21.65-5.56C21.65-5.99 21.58-6.35 21.44-6.65C21.30-6.94 21.10-7.18 20.85-7.36C20.60-7.54 20.29-7.67 19.93-7.75C19.57-7.83 19.18-7.87 18.74-7.87ZM18.62-3.94L17.33-3.94L17.33-7.07L18.62-7.07C19.30-7.07 19.81-6.96 20.15-6.74C20.48-6.52 20.65-6.12 20.65-5.56C20.65-5.00 20.49-4.59 20.15-4.33C19.82-4.07 19.31-3.94 18.62-3.94ZM25.99-3.20L23.63-3.20L24-4.40C24.14-4.84 24.28-5.28 24.41-5.72C24.54-6.15 24.66-6.60 24.78-7.06L24.83-7.06C24.96-6.60 25.08-6.15 25.21-5.72C25.34-5.28 25.48-4.84 25.62-4.40ZM26.24-2.40L26.99 0L28.06 0L25.39-7.87L24.26-7.87L21.60 0L22.62 0L23.38-2.40ZM29.20-1.72L28.60-1.02C28.94-0.66 29.35-0.38 29.82-0.17C30.29 0.04 30.80 0.14 31.36 0.14C31.77 0.14 32.14 0.09 32.47-0.03C32.80-0.15 33.08-0.31 33.31-0.51C33.54-0.71 33.72-0.95 33.85-1.22C33.97-1.50 34.03-1.79 34.03-2.10C34.03-2.39 33.99-2.64 33.91-2.86C33.82-3.08 33.71-3.27 33.56-3.44C33.42-3.60 33.25-3.75 33.05-3.87C32.85-3.99 32.64-4.10 32.41-4.20L31.30-4.68C31.14-4.74 30.98-4.81 30.83-4.89C30.68-4.97 30.54-5.05 30.41-5.15C30.28-5.25 30.18-5.37 30.10-5.50C30.03-5.63 29.99-5.80 29.99-5.99C29.99-6.35 30.12-6.63 30.39-6.83C30.66-7.04 31.01-7.14 31.45-7.14C31.82-7.14 32.15-7.07 32.44-6.94C32.73-6.81 33-6.63 33.24-6.40L33.78-7.04C33.50-7.33 33.16-7.57 32.76-7.75C32.36-7.93 31.92-8.02 31.45-8.02C31.09-8.02 30.76-7.96 30.46-7.86C30.16-7.76 29.90-7.61 29.68-7.42C29.46-7.23 29.29-7.01 29.17-6.76C29.04-6.50 28.98-6.22 28.98-5.93C28.98-5.64 29.03-5.39 29.12-5.17C29.22-4.95 29.34-4.76 29.50-4.60C29.65-4.44 29.82-4.30 30.01-4.19C30.20-4.08 30.39-3.98 30.58-3.90L31.70-3.41C31.89-3.32 32.06-3.24 32.22-3.16C32.38-3.08 32.52-2.99 32.63-2.89C32.75-2.79 32.84-2.67 32.91-2.53C32.98-2.39 33.01-2.22 33.01-2.02C33.01-1.63 32.87-1.32 32.58-1.09C32.29-0.85 31.89-0.73 31.37-0.73C30.96-0.73 30.57-0.82 30.19-1.00C29.81-1.18 29.48-1.42 29.20-1.72ZM38.00-7.87L38.00 0L38.93 0L38.93-4.33C38.93-4.68 38.91-5.07 38.88-5.50C38.85-5.92 38.82-6.31 38.80-6.66L38.84-6.66L39.47-4.91L40.99-0.79L41.56-0.79L43.07-4.91L43.70-6.66L43.75-6.66C43.72-6.31 43.69-5.92 43.66-5.50C43.63-5.07 43.62-4.68 43.62-4.33L43.62 0L44.57 0L44.57-7.87L43.39-7.87L41.88-3.65L41.33-2.04L41.28-2.04L40.70-3.65L39.18-7.87ZM50.08-3.20L47.71-3.20L48.08-4.40C48.23-4.84 48.36-5.28 48.49-5.72C48.62-6.15 48.74-6.60 48.86-7.06L48.91-7.06C49.04-6.60 49.17-6.15 49.30-5.72C49.42-5.28 49.56-4.84 49.70-4.40ZM50.33-2.40L51.07 0L52.14 0L49.48-7.87L48.35-7.87L45.68 0L46.70 0L47.46-2.40ZM53.26-7.87L53.26 0L54.20 0L54.20-4.12C54.20-4.53 54.19-4.95 54.16-5.36C54.13-5.77 54.10-6.18 54.07-6.58L54.12-6.58L54.97-4.96L57.83 0L58.86 0L58.86-7.87L57.91-7.87L57.91-3.80C57.91-3.39 57.93-2.97 57.95-2.54C57.98-2.11 58.01-1.70 58.03-1.30L57.98-1.30L57.13-2.93L54.29-7.87ZM64.37-3.20L62.00-3.20L62.38-4.40C62.52-4.84 62.66-5.28 62.78-5.72C62.91-6.15 63.04-6.60 63.16-7.06L63.20-7.06C63.33-6.60 63.46-6.15 63.59-5.72C63.72-5.28 63.85-4.84 64.00-4.40ZM64.62-2.40L65.36 0L66.43 0L63.77-7.87L62.64-7.87L59.98 0L61.00 0L61.75-2.40ZM66.97-3.94C66.97-3.30 67.06-2.72 67.24-2.21C67.41-1.71 67.66-1.28 67.97-0.93C68.28-0.58 68.65-0.32 69.08-0.13C69.52 0.05 69.99 0.14 70.51 0.14C71.04 0.14 71.51 0.06 71.93-0.11C72.35-0.29 72.69-0.50 72.95-0.77L72.95-4.08L70.37-4.08L70.37-3.25L72.04-3.25L72.04-1.20C71.88-1.06 71.67-0.94 71.42-0.86C71.17-0.77 70.90-0.73 70.62-0.73C70.20-0.73 69.82-0.81 69.50-0.96C69.17-1.11 68.90-1.33 68.68-1.61C68.46-1.89 68.29-2.23 68.18-2.62C68.06-3.02 68.00-3.46 68.00-3.96C68.00-4.45 68.07-4.89 68.19-5.28C68.31-5.67 68.49-6.01 68.71-6.28C68.94-6.56 69.21-6.77 69.53-6.92C69.85-7.07 70.21-7.14 70.61-7.14C71.01-7.14 71.34-7.07 71.60-6.93C71.86-6.79 72.09-6.62 72.29-6.41L72.85-7.04C72.62-7.28 72.32-7.51 71.96-7.71C71.59-7.91 71.14-8.02 70.60-8.02C70.07-8.02 69.58-7.92 69.14-7.73C68.70-7.55 68.32-7.28 68.00-6.92C67.67-6.57 67.42-6.14 67.24-5.64C67.06-5.14 66.97-4.57 66.97-3.94ZM74.83-7.87L74.83 0L79.49 0L79.49-0.85L75.83-0.85L75.83-3.71L78.82-3.71L78.82-4.56L75.83-4.56L75.83-7.03L79.37-7.03L79.37-7.87ZM81.16-7.87L81.16 0L82.08 0L82.08-4.33C82.08-4.68 82.06-5.07 82.03-5.50C82.00-5.92 81.97-6.31 81.95-6.66L82.00-6.66L82.62-4.91L84.14-0.79L84.71-0.79L86.22-4.91L86.86-6.66L86.90-6.66C86.87-6.31 86.84-5.92 86.81-5.50C86.79-5.07 86.77-4.68 86.77-4.33L86.77 0L87.72 0L87.72-7.87L86.54-7.87L85.03-3.65L84.48-2.04L84.43-2.04L83.86-3.65L82.33-7.87ZM89.88-7.87L89.88 0L94.54 0L94.54-0.85L90.88-0.85L90.88-3.71L93.86-3.71L93.86-4.56L90.88-4.56L90.88-7.03L94.42-7.03L94.42-7.87ZM96.20-7.87L96.20 0L97.15 0L97.15-4.12C97.15-4.53 97.14-4.95 97.11-5.36C97.08-5.77 97.05-6.18 97.02-6.58L97.07-6.58L97.92-4.96L100.78 0L101.81 0L101.81-7.87L100.86-7.87L100.86-3.80C100.86-3.39 100.87-2.97 100.90-2.54C100.93-2.11 100.96-1.70 100.98-1.30L100.93-1.30L100.08-2.93L97.24-7.87ZM105.60-7.03L105.60 0L106.61 0L106.61-7.03L108.98-7.03L108.98-7.87L103.22-7.87L103.22-7.03ZM112.85-1.72L112.25-1.02C112.59-0.66 113.00-0.38 113.47-0.17C113.94 0.04 114.46 0.14 115.01 0.14C115.42 0.14 115.80 0.09 116.12-0.03C116.45-0.15 116.73-0.31 116.96-0.51C117.20-0.71 117.37-0.95 117.50-1.22C117.62-1.50 117.68-1.79 117.68-2.10C117.68-2.39 117.64-2.64 117.56-2.86C117.47-3.08 117.36-3.27 117.22-3.44C117.07-3.60 116.90-3.75 116.70-3.87C116.50-3.99 116.29-4.10 116.06-4.20L114.95-4.68C114.79-4.74 114.63-4.81 114.48-4.89C114.33-4.97 114.19-5.05 114.06-5.15C113.93-5.25 113.83-5.37 113.75-5.50C113.68-5.63 113.64-5.80 113.64-5.99C113.64-6.35 113.77-6.63 114.04-6.83C114.31-7.04 114.66-7.14 115.10-7.14C115.47-7.14 115.80-7.07 116.09-6.94C116.39-6.81 116.65-6.63 116.89-6.40L117.43-7.04C117.15-7.33 116.81-7.57 116.41-7.75C116.01-7.93 115.58-8.02 115.10-8.02C114.74-8.02 114.41-7.96 114.11-7.86C113.81-7.76 113.55-7.61 113.33-7.42C113.11-7.23 112.94-7.01 112.82-6.76C112.69-6.50 112.63-6.22 112.63-5.93C112.63-5.64 112.68-5.39 112.78-5.17C112.87-4.95 113.00-4.76 113.15-4.60C113.30-4.44 113.47-4.30 113.66-4.19C113.86-4.08 114.04-3.98 114.23-3.90L115.36-3.41C115.54-3.32 115.71-3.24 115.87-3.16C116.03-3.08 116.17-2.99 116.29-2.89C116.40-2.79 116.49-2.67 116.56-2.53C116.63-2.39 116.66-2.22 116.66-2.02C116.66-1.63 116.52-1.32 116.23-1.09C115.94-0.85 115.54-0.73 115.02-0.73C114.61-0.73 114.22-0.82 113.84-1.00C113.46-1.18 113.13-1.42 112.85-1.72ZM120.42-3.05L120.42 0L121.43 0L121.43-3.05L123.79-7.87L122.75-7.87L121.74-5.65C121.62-5.36 121.49-5.08 121.36-4.80C121.22-4.52 121.08-4.23 120.95-3.94L120.90-3.94C120.76-4.23 120.64-4.52 120.52-4.80C120.40-5.08 120.27-5.36 120.14-5.65L119.12-7.87L118.06-7.87ZM124.69-1.72L124.09-1.02C124.44-0.66 124.84-0.38 125.32-0.17C125.79 0.04 126.30 0.14 126.85 0.14C127.27 0.14 127.64 0.09 127.97-0.03C128.30-0.15 128.58-0.31 128.81-0.51C129.04-0.71 129.22-0.95 129.34-1.22C129.47-1.50 129.53-1.79 129.53-2.10C129.53-2.39 129.49-2.64 129.40-2.86C129.32-3.08 129.20-3.27 129.06-3.44C128.92-3.60 128.74-3.75 128.54-3.87C128.34-3.99 128.13-4.10 127.91-4.20L126.79-4.68C126.63-4.74 126.48-4.81 126.32-4.89C126.17-4.97 126.03-5.05 125.90-5.15C125.78-5.25 125.67-5.37 125.60-5.50C125.52-5.63 125.48-5.80 125.48-5.99C125.48-6.35 125.62-6.63 125.89-6.83C126.15-7.04 126.51-7.14 126.95-7.14C127.32-7.14 127.65-7.07 127.94-6.94C128.23-6.81 128.50-6.63 128.74-6.40L129.28-7.04C129.00-7.33 128.66-7.57 128.26-7.75C127.86-7.93 127.42-8.02 126.95-8.02C126.59-8.02 126.26-7.96 125.96-7.86C125.66-7.76 125.40-7.61 125.18-7.42C124.96-7.23 124.79-7.01 124.66-6.76C124.54-6.50 124.48-6.22 124.48-5.93C124.48-5.64 124.52-5.39 124.62-5.17C124.72-4.95 124.84-4.76 124.99-4.60C125.14-4.44 125.32-4.30 125.51-4.19C125.70-4.08 125.89-3.98 126.07-3.90L127.20-3.41C127.38-3.32 127.56-3.24 127.72-3.16C127.88-3.08 128.01-2.99 128.13-2.89C128.25-2.79 128.34-2.67 128.41-2.53C128.47-2.39 128.51-2.22 128.51-2.02C128.51-1.63 128.36-1.32 128.08-1.09C127.79-0.85 127.38-0.73 126.86-0.73C126.46-0.73 126.06-0.82 125.68-1.00C125.30-1.18 124.97-1.42 124.69-1.72ZM132.47-7.03L132.47 0L133.48 0L133.48-7.03L135.85-7.03L135.85-7.87L130.09-7.87L130.09-7.03ZM137.27-7.87L137.27 0L141.92 0L141.92-0.85L138.26-0.85L138.26-3.71L141.25-3.71L141.25-4.56L138.26-4.56L138.26-7.03L141.80-7.03L141.80-7.87ZM143.59-7.87L143.59 0L144.52 0L144.52-4.33C144.52-4.68 144.50-5.07 144.47-5.50C144.44-5.92 144.41-6.31 144.38-6.66L144.43-6.66L145.06-4.91L146.58-0.79L147.14-0.79L148.66-4.91L149.29-6.66L149.34-6.66C149.31-6.31 149.28-5.92 149.25-5.50C149.22-5.07 149.21-4.68 149.21-4.33L149.21 0L150.16 0L150.16-7.87L148.98-7.87L147.47-3.65L146.92-2.04L146.87-2.04L146.29-3.65L144.77-7.87Z" transform="translate(-0.036000000000000004, 8.016)"></path>
          </g>
        </g>
      </g>
    </g>
  </g>
  <defs v-gra="od"></defs>
</svg>
