<svg data-v-0dd9719b="" version="1.0" xmlns="http://www.w3.org/2000/svg" xmlns:xlink="http://www.w3.org/1999/xlink" width="100%" height="100%" viewBox="0 0 350.000000 100.000000" preserveAspectRatio="xMidYMid meet" color-interpolation-filters="sRGB" style="margin: auto;">
  <rect data-v-0dd9719b="" x="0" y="0" width="100%" height="100%" fill="url(#watermark)" fill-opacity="1" class="watermarklayer"></rect>
  <g data-v-0dd9719b="" fill="#004f9d" class="icon-text-wrapper icon-svg-group iconsvg" transform="translate(64.29499816894531,15.16699981689453)">
    <g class="iconsvg-imagesvg" transform="translate(0,6.299158096313477)">
      <g>
        <rect fill="#004f9d" fill-opacity="0" stroke-width="2" x="0" y="0" width="60" height="47.06768332862657" class="image-rect"></rect>
        <svg x="0" y="0" width="60" height="47.06768332862657" filtersec="colorsb8242673308" class="image-svg-svg primary" style="overflow: visible;">
          <svg xmlns="http://www.w3.org/2000/svg" viewBox="0 0 1531.699951171875 1201.56005859375">
            <g>
              <g style="isolation:isolate">
                <path fill="#024c6d" d="M1531.7 989.5l-22.79-12.4-340.75-591.15 22.8 12.4L1531.7 989.5z"></path>
                <path fill="#007580" d="M778.14 1095.4l-22.8-12.39 188.14-376.84 22.79 12.4-188.13 376.83z"></path>
                <path fill="#024c6d" d="M1190.96 398.35l-22.8-12.4-56.56-98.14 22.79 12.39 56.57 98.15z"></path>
                <path fill="#0f3445" d="M1190.96 398.35l-22.8-12.4-34.73-60.26 22.79 12.4 34.74 60.26z"></path>
                <path fill="#007580" d="M966.27 718.57l-22.79-12.4 189.95-380.48 22.79 12.4-189.95 380.48z"></path>
                <path fill="#113b4e" d="M966.27 718.57l-22.79-12.4 168.12-418.36 22.79 12.39-168.12 418.37z"></path>
                <path fill="#00afbf" d="M1156.22 338.09l34.74 60.26L1531.7 989.5l-753.56 105.9 188.13-376.83 189.95-380.48z"></path>
                <path fill="#1a5b78" d="M1134.39 300.2l56.57 98.15-34.74-60.26-189.95 380.48 168.12-418.37z"></path>
                <path fill="#024c6d" d="M966.28 718.56l-22.8-12.4-187.72-325.68 22.79 12.4 187.73 325.68z"></path>
                <path fill="#00356a" d="M756.66 436.74l-22.8-12.4 21.9-43.86 22.79 12.4-21.89 43.86z"></path>
                <path fill="#024c6d" d="M778.55 392.88l-22.79-12.4L567.12 53.21l22.79 12.4 188.64 327.27z"></path>
                <path fill="#0385bd" d="M968.5 12.4l563.2 977.1-340.74-591.15-56.57-98.15-168.11 418.36-187.73-325.68L589.91 65.61 968.5 12.4z"></path>
                <path fill="#0e243b" d="M756.66 436.74l-22.8-12.4L567.12 53.21l22.79 12.4 166.75 371.13z"></path>
                <path fill="#183f66" d="M589.91 65.61l188.64 327.27-21.89 43.86L589.91 65.61z"></path>
                <path fill="#00356a" d="M22.79 1201.56L0 1189.16 567.12 53.21l22.79 12.4L22.79 1201.56z"></path>
                <path fill="#004f9d" d="M589.91 65.61l166.75 371.13 21.89-43.86-377.16 755.47-378.6 53.21L589.91 65.61z"></path>
                <path fill="#036b99" d="M589.91 65.61l-22.79-12.4L945.71 0l22.79 12.4-378.59 53.21z"></path>
              </g>
            </g>
          </svg>
        </svg>
        <!---->
      </g>
    </g>
    <g transform="translate(67,0)">
      <g data-gra="path-name" fill-rule="" class="tp-name iconsvg-namesvg" transform="translate(0,0)">
        <g transform="scale(1)">
          <g>
            <path d="M22.6-45.51L22.6-45.51 23.58-45.51Q27.1-45.51 29.26-39.9L29.26-39.9Q45.54-7.81 46.02-6.54L46.02-6.54 46.02-4.82Q46.02-1.94 42.21-0.19L42.21-0.19Q41.39 0 40.88 0L40.88 0 40.05 0Q36.5 0 34.31-5.81L34.31-5.81Q23.11-27.96 22.95-28.09L22.95-28.09Q10.41-2.89 9.71-1.87L9.71-1.87Q7.84 0 5.84 0L5.84 0 5.05 0Q2.16 0 0.29-3.49L0.29-3.49Q0-4.51 0-5.11L0-5.11 0-5.81Q0-7.08 3.24-13.14L3.24-13.14 18.54-43.35Q20.34-45.51 22.6-45.51ZM54.53-45.51L54.53-45.51 55.35-45.51Q57.95-45.51 61.16-41.58L61.16-41.58Q61.25-41.58 72.3-30.47L72.3-30.47Q86.39-44.75 86.61-44.78L86.61-44.78Q88.14-45.51 89.25-45.51L89.25-45.51 90.04-45.51Q92.96-45.51 94.87-42.12L94.87-42.12Q95.21-41.13 95.21-40.5L95.21-40.5 95.21-4.92Q95.21-2.29 91.95-0.44L91.95-0.44Q91.03 0 90.23 0L90.23 0 88.96 0Q86.49 0 84.61-2.79L84.61-2.79Q83.79-3.94 83.79-6.35L83.79-6.35 83.79-25.9Q75.76-17.84 75.63-17.84L75.63-17.84Q74.11-16.76 72.2-16.76L72.2-16.76Q69.19-16.76 65.86-20.79L65.86-20.79Q60.72-25.99 60.62-25.99L60.62-25.99 60.62-5.65Q60.62-1.49 56.18-0.1L56.18-0.1Q56.05 0 55.54 0L55.54 0 54.27 0Q51.61 0 49.73-3.14L49.73-3.14Q49.19-4.25 49.19-5.3L49.19-5.3 49.19-40.31Q49.19-43.54 53.19-45.32L53.19-45.32Q54.02-45.51 54.53-45.51ZM114.19-45.51L114.19-45.51 139.17-45.51Q142.66-45.51 144.31-41.74L144.31-41.74Q144.41-41.26 144.41-40.94L144.41-40.94 144.41-39.23Q144.41-36.56 141.04-34.66L141.04-34.66Q139.71-34.21 138.89-34.21L138.89-34.21 109.88-34.21 109.88-28.5 127.14-28.5Q137.65-28.5 142.79-21.87L142.79-21.87Q144.41-19.36 144.41-17.65L144.41-17.65 144.41-10.85Q144.41-6.89 139.08-3.05L139.08-3.05Q133.97 0 129.05 0L129.05 0 103.37 0Q100.77 0 98.83-2.95L98.83-2.95Q98.39-3.9 98.39-4.67L98.39-4.67 98.39-5.9Q98.39-9.36 102.45-11.01L102.45-11.01Q103.37-11.3 104.55-11.3L104.55-11.3 133.02-11.3 133.02-17.01 114.77-17.01Q107.15-17.01 101.66-21.77L101.66-21.77Q98.39-25.04 98.39-28.41L98.39-28.41 98.39-34.15Q98.39-39.74 106.07-43.74L106.07-43.74Q110.54-45.51 114.19-45.51Z" transform="translate(0, 45.5099983215332)"></path>
          </g>
          <!---->
          <!---->
          <!---->
          <!---->
          <!---->
          <!---->
          <!---->
        </g>
      </g>
      <g data-gra="path-slogan" fill-rule="" class="tp-slogan iconsvg-slogansvg" fill="#004f9d" transform="translate(1.4950027465820312,51.5099983215332)">
        <rect width="0"></rect>
        <rect x="144.4199981689453" width="0"></rect>
        <g transform="translate(0,0)">
          <g transform="scale(1)">
            <path d="M1.08-7.87L1.08 0L3.10 0C3.69 0 4.21-0.09 4.67-0.27C5.12-0.45 5.51-0.71 5.82-1.05C6.13-1.39 6.37-1.81 6.53-2.30C6.69-2.79 6.77-3.35 6.77-3.97C6.77-5.23 6.45-6.19 5.82-6.86C5.19-7.54 4.26-7.87 3.05-7.87ZM2.98-0.82L2.08-0.82L2.08-7.06L2.98-7.06C3.90-7.06 4.59-6.79 5.05-6.26C5.51-5.74 5.74-4.97 5.74-3.97C5.74-2.97 5.51-2.20 5.05-1.64C4.59-1.09 3.90-0.82 2.98-0.82ZM9.11-4.14L9.11-7.07L10.43-7.07C11.04-7.07 11.52-6.96 11.84-6.76C12.17-6.55 12.34-6.18 12.34-5.66C12.34-5.15 12.17-4.77 11.84-4.52C11.52-4.27 11.04-4.14 10.43-4.14ZM12.43 0L13.56 0L11.57-3.43C12.10-3.57 12.53-3.82 12.85-4.19C13.17-4.56 13.33-5.05 13.33-5.66C13.33-6.07 13.26-6.42 13.13-6.70C12.99-6.98 12.80-7.20 12.56-7.38C12.31-7.56 12.02-7.68 11.68-7.76C11.34-7.83 10.97-7.87 10.57-7.87L8.11-7.87L8.11 0L9.11 0L9.11-3.32L10.54-3.32ZM14.74-7.87L14.74 0L19.39 0L19.39-0.85L15.73-0.85L15.73-3.71L18.72-3.71L18.72-4.56L15.73-4.56L15.73-7.03L19.27-7.03L19.27-7.87ZM20.26-3.94C20.26-3.30 20.35-2.72 20.52-2.21C20.70-1.71 20.94-1.28 21.25-0.93C21.57-0.58 21.94-0.32 22.37-0.13C22.80 0.05 23.28 0.14 23.80 0.14C24.33 0.14 24.80 0.06 25.22-0.11C25.64-0.29 25.98-0.50 26.23-0.77L26.23-4.08L23.65-4.08L23.65-3.25L25.32-3.25L25.32-1.20C25.16-1.06 24.96-0.94 24.70-0.86C24.45-0.77 24.19-0.73 23.91-0.73C23.48-0.73 23.11-0.81 22.78-0.96C22.46-1.11 22.19-1.33 21.97-1.61C21.75-1.89 21.58-2.23 21.46-2.62C21.35-3.02 21.29-3.46 21.29-3.96C21.29-4.45 21.35-4.89 21.48-5.28C21.60-5.67 21.77-6.01 22.00-6.28C22.22-6.56 22.49-6.77 22.81-6.92C23.13-7.07 23.49-7.14 23.89-7.14C24.29-7.14 24.62-7.07 24.88-6.93C25.14-6.79 25.37-6.62 25.57-6.41L26.14-7.04C25.91-7.28 25.61-7.51 25.24-7.71C24.88-7.91 24.43-8.02 23.88-8.02C23.35-8.02 22.87-7.92 22.43-7.73C21.99-7.55 21.61-7.28 21.28-6.92C20.96-6.57 20.71-6.14 20.53-5.64C20.35-5.14 20.26-4.57 20.26-3.94ZM27.79-1.72L27.19-1.02C27.54-0.66 27.95-0.38 28.42-0.17C28.89 0.04 29.40 0.14 29.95 0.14C30.37 0.14 30.74 0.09 31.07-0.03C31.40-0.15 31.68-0.31 31.91-0.51C32.14-0.71 32.32-0.95 32.44-1.22C32.57-1.50 32.63-1.79 32.63-2.10C32.63-2.39 32.59-2.64 32.50-2.86C32.42-3.08 32.31-3.27 32.16-3.44C32.02-3.60 31.85-3.75 31.65-3.87C31.45-3.99 31.23-4.10 31.01-4.20L29.89-4.68C29.73-4.74 29.58-4.81 29.43-4.89C29.27-4.97 29.13-5.05 29.01-5.15C28.88-5.25 28.78-5.37 28.70-5.50C28.62-5.63 28.59-5.80 28.59-5.99C28.59-6.35 28.72-6.63 28.99-6.83C29.26-7.04 29.61-7.14 30.05-7.14C30.42-7.14 30.75-7.07 31.04-6.94C31.33-6.81 31.60-6.63 31.84-6.40L32.38-7.04C32.10-7.33 31.76-7.57 31.36-7.75C30.96-7.93 30.52-8.02 30.05-8.02C29.69-8.02 29.36-7.96 29.06-7.86C28.76-7.76 28.50-7.61 28.28-7.42C28.06-7.23 27.89-7.01 27.76-6.76C27.64-6.50 27.58-6.22 27.58-5.93C27.58-5.64 27.63-5.39 27.72-5.17C27.82-4.95 27.94-4.76 28.09-4.60C28.25-4.44 28.42-4.30 28.61-4.19C28.80-4.08 28.99-3.98 29.17-3.90L30.30-3.41C30.49-3.32 30.66-3.24 30.82-3.16C30.98-3.08 31.12-2.99 31.23-2.89C31.35-2.79 31.44-2.67 31.51-2.53C31.58-2.39 31.61-2.22 31.61-2.02C31.61-1.63 31.47-1.32 31.18-1.09C30.89-0.85 30.49-0.73 29.97-0.73C29.56-0.73 29.16-0.82 28.78-1.00C28.40-1.18 28.07-1.42 27.79-1.72ZM35.91-7.87L35.91 0L36.83 0L36.83-4.33C36.83-4.68 36.82-5.07 36.78-5.50C36.75-5.92 36.72-6.31 36.70-6.66L36.75-6.66L37.37-4.91L38.90-0.79L39.46-0.79L40.97-4.91L41.61-6.66L41.66-6.66C41.62-6.31 41.59-5.92 41.57-5.50C41.54-5.07 41.52-4.68 41.52-4.33L41.52 0L42.47 0L42.47-7.87L41.30-7.87L39.78-3.65L39.23-2.04L39.18-2.04L38.61-3.65L37.08-7.87ZM47.63-3.20L45.27-3.20L45.64-4.40C45.78-4.84 45.92-5.28 46.05-5.72C46.18-6.15 46.30-6.60 46.42-7.06L46.47-7.06C46.60-6.60 46.72-6.15 46.85-5.72C46.98-5.28 47.12-4.84 47.26-4.40ZM47.88-2.40L48.63 0L49.70 0L47.03-7.87L45.90-7.87L43.24 0L44.26 0L45.02-2.40ZM50.47-7.87L50.47 0L51.41 0L51.41-4.12C51.41-4.53 51.40-4.95 51.37-5.36C51.34-5.77 51.31-6.18 51.28-6.58L51.33-6.58L52.18-4.96L55.04 0L56.07 0L56.07-7.87L55.12-7.87L55.12-3.80C55.12-3.39 55.14-2.97 55.16-2.54C55.19-2.11 55.22-1.70 55.24-1.30L55.19-1.30L54.34-2.93L51.50-7.87ZM61.23-3.20L58.87-3.20L59.24-4.40C59.38-4.84 59.52-5.28 59.65-5.72C59.77-6.15 59.90-6.60 60.02-7.06L60.07-7.06C60.19-6.60 60.32-6.15 60.45-5.72C60.58-5.28 60.71-4.84 60.86-4.40ZM61.48-2.40L62.23 0L63.29 0L60.63-7.87L59.50-7.87L56.84 0L57.86 0L58.61-2.40ZM63.49-3.94C63.49-3.30 63.57-2.72 63.75-2.21C63.93-1.71 64.17-1.28 64.48-0.93C64.79-0.58 65.17-0.32 65.60-0.13C66.03 0.05 66.51 0.14 67.03 0.14C67.55 0.14 68.03 0.06 68.45-0.11C68.87-0.29 69.21-0.50 69.46-0.77L69.46-4.08L66.88-4.08L66.88-3.25L68.55-3.25L68.55-1.20C68.39-1.06 68.18-0.94 67.93-0.86C67.68-0.77 67.41-0.73 67.13-0.73C66.71-0.73 66.34-0.81 66.01-0.96C65.69-1.11 65.42-1.33 65.20-1.61C64.98-1.89 64.81-2.23 64.69-2.62C64.58-3.02 64.52-3.46 64.52-3.96C64.52-4.45 64.58-4.89 64.70-5.28C64.83-5.67 65.00-6.01 65.23-6.28C65.45-6.56 65.72-6.77 66.04-6.92C66.36-7.07 66.72-7.14 67.12-7.14C67.52-7.14 67.85-7.07 68.11-6.93C68.37-6.79 68.60-6.62 68.80-6.41L69.37-7.04C69.13-7.28 68.84-7.51 68.47-7.71C68.11-7.91 67.65-8.02 67.11-8.02C66.58-8.02 66.10-7.92 65.66-7.73C65.22-7.55 64.84-7.28 64.51-6.92C64.19-6.57 63.94-6.14 63.76-5.64C63.58-5.14 63.49-4.57 63.49-3.94ZM71.00-7.87L71.00 0L75.66 0L75.66-0.85L72.00-0.85L72.00-3.71L74.98-3.71L74.98-4.56L72.00-4.56L72.00-7.03L75.54-7.03L75.54-7.87ZM76.98-7.87L76.98 0L77.90 0L77.90-4.33C77.90-4.68 77.88-5.07 77.85-5.50C77.82-5.92 77.79-6.31 77.77-6.66L77.82-6.66L78.44-4.91L79.96-0.79L80.53-0.79L82.04-4.91L82.68-6.66L82.72-6.66C82.69-6.31 82.66-5.92 82.63-5.50C82.61-5.07 82.59-4.68 82.59-4.33L82.59 0L83.54 0L83.54-7.87L82.36-7.87L80.85-3.65L80.30-2.04L80.25-2.04L79.68-3.65L78.15-7.87ZM85.35-7.87L85.35 0L90.01 0L90.01-0.85L86.35-0.85L86.35-3.71L89.34-3.71L89.34-4.56L86.35-4.56L86.35-7.03L89.89-7.03L89.89-7.87ZM91.33-7.87L91.33 0L92.28 0L92.28-4.12C92.28-4.53 92.26-4.95 92.24-5.36C92.21-5.77 92.18-6.18 92.15-6.58L92.19-6.58L93.05-4.96L95.90 0L96.93 0L96.93-7.87L95.99-7.87L95.99-3.80C95.99-3.39 96.00-2.97 96.03-2.54C96.06-2.11 96.08-1.70 96.11-1.30L96.06-1.30L95.21-2.93L92.36-7.87ZM100.38-7.03L100.38 0L101.39 0L101.39-7.03L103.76-7.03L103.76-7.87L98.00-7.87L98.00-7.03ZM106.93-1.72L106.33-1.02C106.68-0.66 107.08-0.38 107.56-0.17C108.03 0.04 108.54 0.14 109.09 0.14C109.51 0.14 109.88 0.09 110.21-0.03C110.54-0.15 110.82-0.31 111.05-0.51C111.28-0.71 111.46-0.95 111.58-1.22C111.71-1.50 111.77-1.79 111.77-2.10C111.77-2.39 111.73-2.64 111.64-2.86C111.56-3.08 111.44-3.27 111.30-3.44C111.16-3.60 110.98-3.75 110.78-3.87C110.58-3.99 110.37-4.10 110.15-4.20L109.03-4.68C108.87-4.74 108.72-4.81 108.56-4.89C108.41-4.97 108.27-5.05 108.14-5.15C108.02-5.25 107.91-5.37 107.84-5.50C107.76-5.63 107.72-5.80 107.72-5.99C107.72-6.35 107.86-6.63 108.13-6.83C108.39-7.04 108.75-7.14 109.19-7.14C109.56-7.14 109.89-7.07 110.18-6.94C110.47-6.81 110.74-6.63 110.98-6.40L111.52-7.04C111.24-7.33 110.90-7.57 110.50-7.75C110.10-7.93 109.66-8.02 109.19-8.02C108.83-8.02 108.50-7.96 108.20-7.86C107.90-7.76 107.64-7.61 107.42-7.42C107.20-7.23 107.03-7.01 106.90-6.76C106.78-6.50 106.72-6.22 106.72-5.93C106.72-5.64 106.76-5.39 106.86-5.17C106.96-4.95 107.08-4.76 107.23-4.60C107.38-4.44 107.56-4.30 107.75-4.19C107.94-4.08 108.13-3.98 108.31-3.90L109.44-3.41C109.62-3.32 109.80-3.24 109.96-3.16C110.12-3.08 110.25-2.99 110.37-2.89C110.49-2.79 110.58-2.67 110.65-2.53C110.71-2.39 110.75-2.22 110.75-2.02C110.75-1.63 110.60-1.32 110.32-1.09C110.03-0.85 109.62-0.73 109.10-0.73C108.70-0.73 108.30-0.82 107.92-1.00C107.54-1.18 107.21-1.42 106.93-1.72ZM114.16-3.05L114.16 0L115.16 0L115.16-3.05L117.53-7.87L116.48-7.87L115.48-5.65C115.36-5.36 115.23-5.08 115.09-4.80C114.96-4.52 114.82-4.23 114.68-3.94L114.64-3.94C114.50-4.23 114.37-4.52 114.25-4.80C114.13-5.08 114.01-5.36 113.88-5.65L112.86-7.87L111.79-7.87ZM118.08-1.72L117.48-1.02C117.82-0.66 118.23-0.38 118.70-0.17C119.18 0.04 119.69 0.14 120.24 0.14C120.66 0.14 121.03 0.09 121.36-0.03C121.68-0.15 121.96-0.31 122.20-0.51C122.43-0.71 122.61-0.95 122.73-1.22C122.85-1.50 122.92-1.79 122.92-2.10C122.92-2.39 122.87-2.64 122.79-2.86C122.71-3.08 122.59-3.27 122.45-3.44C122.30-3.60 122.13-3.75 121.93-3.87C121.73-3.99 121.52-4.10 121.30-4.20L120.18-4.68C120.02-4.74 119.86-4.81 119.71-4.89C119.56-4.97 119.42-5.05 119.29-5.15C119.16-5.25 119.06-5.37 118.99-5.50C118.91-5.63 118.87-5.80 118.87-5.99C118.87-6.35 119.01-6.63 119.27-6.83C119.54-7.04 119.90-7.14 120.34-7.14C120.70-7.14 121.03-7.07 121.33-6.94C121.62-6.81 121.88-6.63 122.12-6.40L122.66-7.04C122.38-7.33 122.04-7.57 121.64-7.75C121.24-7.93 120.81-8.02 120.34-8.02C119.98-8.02 119.65-7.96 119.35-7.86C119.05-7.76 118.79-7.61 118.57-7.42C118.35-7.23 118.17-7.01 118.05-6.76C117.93-6.50 117.86-6.22 117.86-5.93C117.86-5.64 117.91-5.39 118.01-5.17C118.10-4.95 118.23-4.76 118.38-4.60C118.53-4.44 118.70-4.30 118.90-4.19C119.09-4.08 119.28-3.98 119.46-3.90L120.59-3.41C120.77-3.32 120.94-3.24 121.10-3.16C121.26-3.08 121.40-2.99 121.52-2.89C121.63-2.79 121.73-2.67 121.79-2.53C121.86-2.39 121.90-2.22 121.90-2.02C121.90-1.63 121.75-1.32 121.46-1.09C121.18-0.85 120.77-0.73 120.25-0.73C119.84-0.73 119.45-0.82 119.07-1.00C118.69-1.18 118.36-1.42 118.08-1.72ZM125.51-7.03L125.51 0L126.52 0L126.52-7.03L128.89-7.03L128.89-7.87L123.13-7.87L123.13-7.03ZM129.96-7.87L129.96 0L134.62 0L134.62-0.85L130.96-0.85L130.96-3.71L133.95-3.71L133.95-4.56L130.96-4.56L130.96-7.03L134.50-7.03L134.50-7.87ZM135.94-7.87L135.94 0L136.86 0L136.86-4.33C136.86-4.68 136.85-5.07 136.82-5.50C136.78-5.92 136.76-6.31 136.73-6.66L136.78-6.66L137.40-4.91L138.93-0.79L139.49-0.79L141.00-4.91L141.64-6.66L141.69-6.66C141.66-6.31 141.63-5.92 141.60-5.50C141.57-5.07 141.56-4.68 141.56-4.33L141.56 0L142.50 0L142.50-7.87L141.33-7.87L139.82-3.65L139.26-2.04L139.22-2.04L138.64-3.65L137.12-7.87Z" transform="translate(-1.08, 8.016)"></path>
          </g>
        </g>
      </g>
    </g>
  </g>
  <defs v-gra="od"></defs>
</svg>
